<svg xmlns="http://www.w3.org/2000/svg" width="201.066" height="93.009" viewBox="0 0 201.066 93.009"><g id="logo_taya" transform="translate(134.759 -150.99)"><path id="Union_30" data-name="Union 30" d="M195.808,91.849a2.867,2.867,0,0,1-1-.491,2.409,2.409,0,0,1-.684-.848,2.829,2.829,0,0,1-.266-1.222h1.335a1.708,1.708,0,0,0,.148.747,1.343,1.343,0,0,0,.417.507,1.759,1.759,0,0,0,.613.288,2.966,2.966,0,0,0,.752.091,2.414,2.414,0,0,0,.747-.1,1.514,1.514,0,0,0,.5-.261.953.953,0,0,0,.278-.369,1.1,1.1,0,0,0,.086-.421.91.91,0,0,0-.2-.646,1.128,1.128,0,0,0-.433-.294,8.993,8.993,0,0,0-.944-.282c-.359-.09-.8-.2-1.329-.347a2.849,2.849,0,0,1-.816-.336,2,2,0,0,1-.518-.464,1.627,1.627,0,0,1-.271-.544,2.192,2.192,0,0,1-.08-.587,1.988,1.988,0,0,1,.24-1,2.15,2.15,0,0,1,.635-.7,2.756,2.756,0,0,1,.9-.41,3.879,3.879,0,0,1,1.014-.135,4.043,4.043,0,0,1,1.126.155,2.785,2.785,0,0,1,.928.464,2.21,2.21,0,0,1,.87,1.815h-1.335a1.287,1.287,0,0,0-.5-1.042,2,2,0,0,0-1.142-.3,2.525,2.525,0,0,0-.481.048,1.571,1.571,0,0,0-.448.16,1,1,0,0,0-.336.3.929.929,0,0,0,.117,1.115,1.609,1.609,0,0,0,.656.345l.337.092c.2.052.415.112.656.175s.478.128.709.187.4.106.5.135a2.224,2.224,0,0,1,.651.319,2.083,2.083,0,0,1,.464.465,1.9,1.9,0,0,1,.278.56,2.061,2.061,0,0,1,.091.6,2.158,2.158,0,0,1-.262,1.094,2.226,2.226,0,0,1-.687.741,3,3,0,0,1-.972.422,4.644,4.644,0,0,1-1.109.133A4.541,4.541,0,0,1,195.808,91.849ZM22.256,91.694a3.347,3.347,0,0,1-1.146-.859,3.83,3.83,0,0,1-.72-1.27,4.856,4.856,0,0,1,0-3.085,3.845,3.845,0,0,1,.72-1.27,3.431,3.431,0,0,1,1.146-.864,3.822,3.822,0,0,1,3.064,0,3.449,3.449,0,0,1,1.147.864,3.862,3.862,0,0,1,.72,1.27,4.861,4.861,0,0,1,0,3.085,3.847,3.847,0,0,1-.72,1.27,3.365,3.365,0,0,1-1.147.859,3.884,3.884,0,0,1-3.064,0Zm.481-6.333a2.065,2.065,0,0,0-.72.657,2.949,2.949,0,0,0-.411.933,4.324,4.324,0,0,0,0,2.135,2.951,2.951,0,0,0,.411.934,2.063,2.063,0,0,0,.72.656,2.369,2.369,0,0,0,2.1,0,2.058,2.058,0,0,0,.721-.656,2.984,2.984,0,0,0,.411-.934,4.347,4.347,0,0,0,0-2.135,2.983,2.983,0,0,0-.411-.933,2.06,2.06,0,0,0-.721-.657,2.369,2.369,0,0,0-2.1,0ZM178.52,91.828l-3.469-5.6h-.032v5.6h-1.27v-7.62h1.409l3.479,5.614h.021V84.208h1.27v7.62Zm-24.247,0v-7.62h5.486v1.153h-4.151v2h3.841v1.088h-3.841v2.231h4.225v1.153Zm-15.794,0-3.469-5.6h-.032v5.6h-1.27v-7.62h1.409l3.479,5.614h.022V84.208h1.27v7.62Zm-20.49,0v-7.62h1.334v7.62Zm-18.932,0v-7.62h1.335v6.467h3.874v1.153Zm-35.3,0v-7.62H69.24v1.153H65.088v2H68.93v1.088H65.088v2.231h4.227v1.153Zm-15.677,0V85.947h-.022l-2.113,5.881h-1.1l-2.113-5.881h-.022v5.881h-1.27v-7.62h1.878l2.1,5.966h.022l2.048-5.966h1.858v7.62Zm-43.275,0V88.392H1.335v3.436H0v-7.62H1.335v3.031H4.8V84.208H6.137v7.62ZM0,69.679V1.951H0V0H52.011V1.951H26.933V67.9H42.775L70.26,0H199.98V69.679ZM197.093,67.9l-8.466-21.163H153.108L144.553,67.9Zm-54.686,0L169.174,1.773H149.818L122.857,40.3V67.9Zm-21.5,0V40.3L94.039,1.773H73.5L99.617,67.9Zm-23.445,0L89,46.742H53.476L44.921,67.9Zm-95.684,0h23.2V1.951H1.777Zm196.428-2.643V1.773H173.13ZM153.888,44.79h33.959L171.258,1.951h-.195Zm-99.631,0H88.215L71.626,1.951h-.2Zm67.625-6.538,25.59-36.478h-51Z" transform="translate(-134.259 151.491)" stroke="rgba(0,0,0,0)" stroke-miterlimit="10" stroke-width="1"></path></g></svg>